<svg height="512pt" viewBox="-94 0 512 512" width="512pt" xmlns="http://www.w3.org/2000/svg"><path d="m92.808594 221.863281c21.414062 0 43.050781 5.226563 64.320312 15.527344 36.386719 17.625 73.292969 26.5625 109.691406 26.5625 25.609376 0 44.328126-4.671875 56.421876-8.039063v-11.21875c0-25.78125-14.503907-49.375-37.511719-61.011718l-57.789063-29.234375-66.320312-26.859375-66.324219 26.859375-57.785156 29.234375c-23.007813 11.640625-37.511719 35.230468-37.511719 61.015625v12.226562c13.445312-10.007812 49.8125-35.0625 92.808594-35.0625zm0 0" fill="#c2eafb"/><path d="m92.808594 221.863281c21.414062 0 43.050781 5.226563 64.320312 15.527344 5.496094 2.660156 10.976563 5.117187 16.492188 7.378906 50.964844-28.300781 74.28125-80.222656 74.28125-80.222656l-19.960938-10.097656-66.320312-26.859375-66.324219 26.859375-57.785156 29.234375c-23.007813 11.640625-37.511719 35.230468-37.511719 61.011718v12.230469c13.445312-10.007812 49.8125-35.0625 92.808594-35.0625zm0 0" fill="#91d4f2"/><path d="m178.082031 0h-32.921875c-11.984375 0-22.035156 9.046875-23.289062 20.964844l-8.234375 78.191406h95.96875l-8.238281-78.191406c-1.253907-11.917969-11.304688-20.964844-23.285157-20.964844zm0 0" fill="#ffa93f"/><path d="m203.410156 40.332031c-16.230468 4.992188-45.300781 11.265625-84.535156 9.058594l-5.238281 49.765625h95.96875zm0 0" fill="#ff9000"/><path d="m227.941406 154.449219h-132.644531v-49.820313c0-13.789062 11.179687-24.96875 24.96875-24.96875h82.710937c13.789063 0 24.964844 11.179688 24.964844 24.96875zm0 0" fill="#ffbe73"/><path d="m47.441406 512h228.355469c26.203125 0 47.441406-21.242188 47.441406-47.441406v-219.859375s-68.226562 28.664062-161.621093-16.578125c-93.390626-45.242188-161.617188 16.578125-161.617188 16.578125v219.859375c0 26.199218 21.242188 47.441406 47.441406 47.441406zm0 0" fill="#73da8c"/><path d="m112.78125 475.234375s-.085938-88.285156-.09375-151.128906c0-31.550781 18.558594-60.355469 47.5625-72.773438 8.832031-3.78125 16.949219-8.3125 24.382812-13.300781-7.476562-2.820312-15.152343-6.101562-23.011718-9.910156-93.394532-45.242188-161.621094 16.578125-161.621094 16.578125v219.859375c0 26.199218 21.242188 47.441406 47.441406 47.441406h74.527344c-11.410156-16.820312-9.1875-36.765625-9.1875-36.765625zm0 0" fill="#29ce69"/><path d="m237.804688 459.078125h-152.367188c-17.039062 0-30.851562-13.8125-30.851562-30.851563v-94.222656c0-17.035156 13.8125-30.847656 30.851562-30.847656h152.367188c17.039062 0 30.851562 13.8125 30.851562 30.847656v94.222656c0 17.039063-13.8125 30.851563-30.851562 30.851563zm0 0" fill="#fcf5af"/><path d="m115.476562 303.15625h-30.039062c-17.039062 0-30.851562 13.8125-30.851562 30.847656v94.222656c0 17.039063 13.8125 30.851563 30.851562 30.851563h27.328125c-.023437-28.386719-.070313-88.601563-.078125-134.972656 0-7.179688.960938-14.214844 2.789062-20.949219zm0 0" fill="#f4e74d"/><g fill="#454545"><path d="m210.457031 393.828125c-4.265625 0-7.726562-3.460937-7.726562-7.726563v-12.828124c0-4.265626 3.460937-7.726563 7.726562-7.726563 4.269531 0 7.726563 3.460937 7.726563 7.726563v12.828124c0 4.265626-3.457032 7.726563-7.726563 7.726563zm0 0"/><path d="m112.78125 393.828125c-4.265625 0-7.726562-3.460937-7.726562-7.726563v-12.828124c0-4.265626 3.460937-7.726563 7.726562-7.726563 4.269531 0 7.726562 3.460937 7.726562 7.726563v12.828124c0 4.265626-3.457031 7.726563-7.726562 7.726563zm0 0"/><path d="m166.898438 378.382812c-1.734376 2.542969-4.253907 2.847657-5.277344 2.847657-1.023438 0-3.589844-.277344-5.277344-2.847657-2.34375-3.566406-7.136719-4.558593-10.699219-2.214843-3.566406 2.34375-4.558593 7.132812-2.21875 10.699219 4.039063 6.148437 10.839844 9.816406 18.195313 9.816406 7.351562 0 14.152344-3.667969 18.191406-9.816406 2.34375-3.566407 1.351562-8.355469-2.214844-10.699219-1.308594-.859375-7.089844-3.082031-10.699218 2.214843zm0 0"/></g></svg>