<?xml version="1.0" encoding="iso-8859-1"?>
<!-- Generator: Adobe Illustrator 19.0.0, SVG Export Plug-In . SVG Version: 6.00 Build 0)  -->
<svg version="1.1" id="Capa_1" xmlns="http://www.w3.org/2000/svg" xmlns:xlink="http://www.w3.org/1999/xlink" x="0px" y="0px"
	 viewBox="0 0 512 512" style="enable-background:new 0 0 512 512;" xml:space="preserve">
<polygon style="fill:#EE3C32;" points="277.333,10 234.667,10 227.81,50 284.19,50 "/>
<polygon style="fill:#FA9600;" points="219.81,50 212,90 300,90 292.19,50 "/>
<path style="fill:#5AA096;" d="M312,90H200l-76,280v132h264v-92L312,90z"/>
<rect x="201.5" y="262" style="fill:#E6E6E6;" width="110" height="160"/>
<path d="M397.729,407.689l-26.814-112.903c3.575-30.484,15.841-135.234,19.027-164.711c2.699-24.967-13.171-48.519-39.355-50.058
	C350.392,80.006,308.236,80,308.236,80l-6.231-31.916c-0.888-4.552-4.784-7.866-9.379-8.065L287.189,8.31
	C286.366,3.509,282.204,0,277.333,0h-42.667c-4.871,0-9.033,3.51-9.856,8.311l-5.436,31.708c-4.596,0.199-8.491,3.513-9.379,8.065
	L203.764,80H200c-4.514,0-8.468,3.024-9.651,7.38l-76,280c-0.232,0.854-0.349,1.735-0.349,2.62v132c0,5.523,4.477,10,10,10h264
	c5.522,0,10-4.477,10-10v-92C398,409.222,397.909,408.446,397.729,407.689z M349.588,100c15.195,0.001,21.884,14.846,20.47,27.925
	c-2.039,18.858-7.813,68.696-12.635,110.05L324.653,100C324.653,100,349.534,100,349.588,100z M243.098,20h25.803l3.429,20h-32.66
	L243.098,20z M228.046,60h55.908l3.904,20h-63.717L228.046,60z M378,492H134v-20h130c5.51,0,10-4.49,10-10s-4.49-10-10-10H134
	v-80.667L207.647,100h96.449L378,411.171V492z"/>
<path d="M191.5,262v160c0,5.523,4.477,10,10,10h110c5.522,0,10-4.477,10-10V262c0-5.523-4.478-10-10-10h-110
	C195.977,252,191.5,256.477,191.5,262z M211.5,272h90v140h-90V272z"/>
<path d="M304,452c-5.521,0-10,4.49-10,10s4.479,10,10,10c5.51,0,10-4.49,10-10S309.51,452,304,452z"/>
<path d="M271,372h-30c-5.523,0-10,4.477-10,10s4.477,10,10,10h30c5.522,0,10-4.477,10-10S276.522,372,271,372z"/>
<path d="M271,332h-30c-5.523,0-10,4.477-10,10s4.477,10,10,10h30c5.522,0,10-4.477,10-10S276.522,332,271,332z"/>
<path d="M271,292h-30c-5.523,0-10,4.477-10,10s4.477,10,10,10h30c5.522,0,10-4.477,10-10S276.522,292,271,292z"/>
<g>
</g>
<g>
</g>
<g>
</g>
<g>
</g>
<g>
</g>
<g>
</g>
<g>
</g>
<g>
</g>
<g>
</g>
<g>
</g>
<g>
</g>
<g>
</g>
<g>
</g>
<g>
</g>
<g>
</g>
</svg>
